<?xml version="1.0" encoding="UTF-8" standalone="no"?>
<svg
   xmlns:dc="http://purl.org/dc/elements/1.1/"
   xmlns:cc="http://creativecommons.org/ns#"
   xmlns:rdf="http://www.w3.org/1999/02/22-rdf-syntax-ns#"
   xmlns:svg="http://www.w3.org/2000/svg"
   xmlns="http://www.w3.org/2000/svg"
   xmlns:sodipodi="http://sodipodi.sourceforge.net/DTD/sodipodi-0.dtd"
   xmlns:inkscape="http://www.inkscape.org/namespaces/inkscape"
   width="210mm"
   height="297mm"
   viewBox="0 0 210 297"
   version="1.1"
   id="svg8"
   inkscape:version="1.0.2-2 (e86c870879, 2021-01-15)"
   sodipodi:docname="speed.svg">
  <defs
     id="defs2">
    <pattern
       id="EMFhbasepattern"
       patternUnits="userSpaceOnUse"
       width="6"
       height="6"
       x="0"
       y="0" />
  </defs>
  <sodipodi:namedview
     id="base"
     pagecolor="#ffffff"
     bordercolor="#666666"
     borderopacity="1.0"
     inkscape:pageopacity="0.0"
     inkscape:pageshadow="2"
     inkscape:zoom="1.1897439"
     inkscape:cx="168.3003"
     inkscape:cy="512.87704"
     inkscape:document-units="mm"
     inkscape:current-layer="layer1"
     inkscape:document-rotation="0"
     showgrid="false"
     inkscape:window-width="1738"
     inkscape:window-height="1020"
     inkscape:window-x="32"
     inkscape:window-y="0"
     inkscape:window-maximized="0" />
  <metadata
     id="metadata5">
    <rdf:RDF>
      <cc:Work
         rdf:about="">
        <dc:format>image/svg+xml</dc:format>
        <dc:type
           rdf:resource="http://purl.org/dc/dcmitype/StillImage" />
        <dc:title></dc:title>
      </cc:Work>
    </rdf:RDF>
  </metadata>
  <g
     inkscape:label="Camada 1"
     inkscape:groupmode="layer"
     id="layer1">
    <g
       id="g1574"
       inkscape:export-xdpi="500"
       inkscape:export-ydpi="500">
      <path
         style="fill:none;stroke:#262626;stroke-width:0.3;stroke-linecap:butt;stroke-linejoin:round;stroke-miterlimit:4;stroke-dasharray:none;stroke-opacity:1"
         d="M -18.75023,167.24572 H 78.627767"
         id="path840" />
      <path
         style="fill:none;stroke:#262626;stroke-width:0.3;stroke-linecap:butt;stroke-linejoin:round;stroke-miterlimit:4;stroke-dasharray:none;stroke-opacity:1"
         d="M -18.75023,167.24572 V 166.2818"
         id="path844" />
      <path
         style="fill:none;stroke:#262626;stroke-width:0.3;stroke-linecap:butt;stroke-linejoin:round;stroke-miterlimit:4;stroke-dasharray:none;stroke-opacity:1"
         d="M -9.0101883,167.24572 V 166.2818"
         id="path846" />
      <path
         style="fill:none;stroke:#262626;stroke-width:0.3;stroke-linecap:butt;stroke-linejoin:round;stroke-miterlimit:4;stroke-dasharray:none;stroke-opacity:1"
         d="M 0.72985266,167.24572 V 166.2818"
         id="path848" />
      <path
         style="fill:none;stroke:#262626;stroke-width:0.3;stroke-linecap:butt;stroke-linejoin:round;stroke-miterlimit:4;stroke-dasharray:none;stroke-opacity:1"
         d="M 10.469896,167.24572 V 166.2818"
         id="path850" />
      <path
         style="fill:none;stroke:#262626;stroke-width:0.3;stroke-linecap:butt;stroke-linejoin:round;stroke-miterlimit:4;stroke-dasharray:none;stroke-opacity:1"
         d="M 20.209936,167.24572 V 166.2818"
         id="path852" />
      <path
         style="fill:none;stroke:#262626;stroke-width:0.3;stroke-linecap:butt;stroke-linejoin:round;stroke-miterlimit:4;stroke-dasharray:none;stroke-opacity:1"
         d="M 29.938771,167.24572 V 166.2818"
         id="path854" />
      <path
         style="fill:none;stroke:#262626;stroke-width:0.3;stroke-linecap:butt;stroke-linejoin:round;stroke-miterlimit:4;stroke-dasharray:none;stroke-opacity:1"
         d="M 39.678811,167.24572 V 166.2818"
         id="path856" />
      <path
         style="fill:none;stroke:#262626;stroke-width:0.3;stroke-linecap:butt;stroke-linejoin:round;stroke-miterlimit:4;stroke-dasharray:none;stroke-opacity:1"
         d="M 49.418854,167.24572 V 166.2818"
         id="path858" />
      <path
         style="fill:none;stroke:#262626;stroke-width:0.3;stroke-linecap:butt;stroke-linejoin:round;stroke-miterlimit:4;stroke-dasharray:none;stroke-opacity:1"
         d="M 59.158897,167.24572 V 166.2818"
         id="path860" />
      <path
         style="fill:none;stroke:#262626;stroke-width:0.3;stroke-linecap:butt;stroke-linejoin:round;stroke-miterlimit:4;stroke-dasharray:none;stroke-opacity:1"
         d="M 68.898937,167.24572 V 166.2818"
         id="path862" />
      <path
         style="fill:none;stroke:#262626;stroke-width:0.3;stroke-linecap:butt;stroke-linejoin:round;stroke-miterlimit:4;stroke-dasharray:none;stroke-opacity:1"
         d="M 78.627767,167.24572 V 166.2818"
         id="path864" />
      <text
         xml:space="preserve"
         style="font-style:normal;font-variant:normal;font-weight:400;font-size:6.55777px;line-height:125%;font-family:Arial;text-align:start;letter-spacing:0px;word-spacing:0px;text-anchor:start;fill:#000000;fill-opacity:1;stroke:none;stroke-width:0.57024"
         x="-22.934166"
         y="175.41225"
         id="text892"
         transform="scale(1.0153733,0.98485946)"><tspan
           sodipodi:role="line"
           x="-22.934166"
           y="175.41225"
           id="tspan890"
           style="stroke-width:0.57024"><tspan
             dx="0"
             dy="0"
             style="font-style:normal;font-variant:normal;font-weight:400;font-size:6.55777px;font-family:Arial;fill:#262626;stroke-width:0.57024"
             id="tspan888">0</tspan></tspan></text>
      <text
         xml:space="preserve"
         style="font-style:normal;font-variant:normal;font-weight:400;font-size:6.56817px;line-height:125%;font-family:Arial;text-align:start;letter-spacing:0px;word-spacing:0px;text-anchor:start;fill:#000000;fill-opacity:1;stroke:none;stroke-width:0.571144"
         x="-1.3451763"
         y="172.83524"
         id="text904"><tspan
           sodipodi:role="line"
           x="-1.3451763"
           y="172.83524"
           id="tspan902"
           style="stroke-width:0.571144"><tspan
             dx="0"
             dy="0"
             style="font-style:normal;font-variant:normal;font-weight:400;font-size:6.56817px;font-family:Arial;fill:#262626;stroke-width:0.571144"
             id="tspan900">2</tspan></tspan></text>
      <text
         xml:space="preserve"
         style="font-style:normal;font-variant:normal;font-weight:400;font-size:6.43443px;line-height:125%;font-family:Arial;text-align:start;letter-spacing:0px;word-spacing:0px;text-anchor:start;fill:#000000;fill-opacity:1;stroke:none;stroke-width:0.559515"
         x="18.886496"
         y="168.62582"
         id="text916"
         transform="scale(0.97564497,1.024963)"><tspan
           sodipodi:role="line"
           x="18.886496"
           y="168.62582"
           id="tspan914"
           style="stroke-width:0.559515"><tspan
             dx="0"
             dy="0"
             style="font-style:normal;font-variant:normal;font-weight:400;font-size:6.43443px;font-family:Arial;fill:#262626;stroke-width:0.559515"
             id="tspan912">4</tspan></tspan></text>
      <text
         xml:space="preserve"
         style="font-style:normal;font-variant:normal;font-weight:400;font-size:6.517px;line-height:125%;font-family:Arial;text-align:start;letter-spacing:0px;word-spacing:0px;text-anchor:start;fill:#000000;fill-opacity:1;stroke:none;stroke-width:0.566694"
         x="37.508068"
         y="174.32159"
         id="text928"
         transform="scale(1.0090601,0.99102127)"><tspan
           sodipodi:role="line"
           x="37.508068"
           y="174.32159"
           id="tspan926"
           style="stroke-width:0.566694"><tspan
             dx="0"
             dy="0"
             style="font-style:normal;font-variant:normal;font-weight:400;font-size:6.517px;font-family:Arial;fill:#262626;stroke-width:0.566694"
             id="tspan924">6</tspan></tspan></text>
      <text
         xml:space="preserve"
         style="font-style:normal;font-variant:normal;font-weight:400;font-size:6.52374px;line-height:125%;font-family:Arial;text-align:start;letter-spacing:0px;word-spacing:0px;text-anchor:start;fill:#000000;fill-opacity:1;stroke:none;stroke-width:0.567281"
         x="56.631302"
         y="174.50195"
         id="text940"
         transform="scale(1.0101041,0.98999697)"><tspan
           sodipodi:role="line"
           x="56.631302"
           y="174.50195"
           id="tspan938"
           style="stroke-width:0.567281"><tspan
             dx="0"
             dy="0"
             style="font-style:normal;font-variant:normal;font-weight:400;font-size:6.52374px;font-family:Arial;fill:#262626;stroke-width:0.567281"
             id="tspan936">8</tspan></tspan></text>
      <text
         xml:space="preserve"
         style="font-style:normal;font-variant:normal;font-weight:400;font-size:6.5376px;line-height:125%;font-family:Arial;text-align:start;letter-spacing:0px;word-spacing:0px;text-anchor:start;fill:#000000;fill-opacity:1;stroke:none;stroke-width:0.568487"
         x="72.421463"
         y="174.87286"
         id="text952"
         transform="scale(1.0122512,0.98789711)"><tspan
           sodipodi:role="line"
           x="72.421463"
           y="174.87286"
           id="tspan950"
           style="stroke-width:0.568487"><tspan
             dx="0"
             dy="0"
             style="font-style:normal;font-variant:normal;font-weight:400;font-size:6.5376px;font-family:Arial;fill:#262626;stroke-width:0.568487"
             id="tspan948">10</tspan></tspan></text>
      <path
         style="fill:#262626;fill-opacity:1;fill-rule:nonzero;stroke:none;stroke-width:0.538219"
         d="m 70.805449,177.32815 c 0,-0.0442 0,-0.0662 0.02351,-0.0883 l 1.317584,-1.2373 -1.317584,-1.23729 c -0.02351,-0.0221 -0.02351,-0.0442 -0.02351,-0.0662 0,-0.0442 0,-0.0662 0.02351,-0.0883 0.04702,-0.0221 0.07053,-0.0442 0.09405,-0.0442 0.04702,0 0.07053,0.0221 0.09405,0.0442 l 1.317585,1.23729 1.317563,-1.23729 c 0.02351,-0.0221 0.04702,-0.0442 0.07053,-0.0442 0.04702,0 0.07053,0.0221 0.09405,0.0442 0.02351,0.0221 0.04702,0.0442 0.04702,0.0883 0,0.0221 -0.02351,0.0442 -0.04702,0.0662 l -1.294053,1.23729 1.294053,1.2373 c 0.02351,0.0221 0.04702,0.0442 0.04702,0.0883 0,0.0221 -0.02351,0.0442 -0.04702,0.0662 -0.02351,0.0442 -0.04702,0.0442 -0.09405,0.0442 -0.02351,0 -0.04702,-0.0221 -0.07053,-0.0442 l -1.317563,-1.21521 -1.317585,1.21521 c -0.02351,0.0221 -0.04702,0.0442 -0.09405,0.0442 -0.02351,0 -0.04702,-0.0221 -0.09405,-0.0442 -0.02351,-0.0221 -0.02351,-0.0442 -0.02351,-0.0662 z"
         id="path954" />
      <text
         xml:space="preserve"
         style="font-style:normal;font-variant:normal;font-weight:400;font-size:4.73421px;line-height:125%;font-family:Arial;text-align:start;letter-spacing:0px;word-spacing:0px;text-anchor:start;fill:#000000;fill-opacity:1;stroke:none;stroke-width:0.411669"
         x="72.165207"
         y="182.0751"
         id="text962"
         transform="scale(1.0276625,0.97308211)"><tspan
           sodipodi:role="line"
           x="72.165207"
           y="182.0751"
           id="tspan960"
           style="stroke-width:0.411669"><tspan
             dx="0"
             dy="0"
             style="font-style:normal;font-variant:normal;font-weight:400;font-size:4.73421px;font-family:Arial;fill:#262626;stroke-width:0.411669"
             id="tspan956">10</tspan><tspan
             dx="0"
             dy="-2.2322216"
             style="font-style:normal;font-variant:normal;font-weight:400;font-size:3.62784px;font-family:Arial;fill:#262626;stroke-width:0.411669"
             id="tspan958">5</tspan></tspan></text>
      <path
         style="fill:none;stroke:#262626;stroke-width:0.346;stroke-linecap:butt;stroke-linejoin:round;stroke-miterlimit:4;stroke-dasharray:none;stroke-opacity:1"
         d="M -18.75023,167.24572 V 90.491051"
         id="path964" />
      <path
         style="fill:none;stroke:#262626;stroke-width:0.3;stroke-linecap:butt;stroke-linejoin:round;stroke-miterlimit:4;stroke-dasharray:none;stroke-opacity:1"
         d="m -18.75023,167.24572 h 0.975125"
         id="path968" />
      <path
         style="fill:none;stroke:#262626;stroke-width:0.346;stroke-linecap:butt;stroke-linejoin:round;stroke-miterlimit:4;stroke-dasharray:none;stroke-opacity:1"
         d="m -18.75023,154.45701 h 0.975125"
         id="path970" />
      <path
         style="fill:none;stroke:#262626;stroke-width:0.346;stroke-linecap:butt;stroke-linejoin:round;stroke-miterlimit:4;stroke-dasharray:none;stroke-opacity:1"
         d="m -18.75023,141.6683 h 0.975125"
         id="path972" />
      <path
         style="fill:none;stroke:#262626;stroke-width:0.346;stroke-linecap:butt;stroke-linejoin:round;stroke-miterlimit:4;stroke-dasharray:none;stroke-opacity:1"
         d="m -18.75023,128.86838 h 0.975125"
         id="path974" />
      <path
         style="fill:none;stroke:#262626;stroke-width:0.346;stroke-linecap:butt;stroke-linejoin:round;stroke-miterlimit:4;stroke-dasharray:none;stroke-opacity:1"
         d="m -18.75023,116.07968 h 0.975125"
         id="path976" />
      <path
         style="fill:none;stroke:#262626;stroke-width:0.346;stroke-linecap:butt;stroke-linejoin:round;stroke-miterlimit:4;stroke-dasharray:none;stroke-opacity:1"
         d="m -18.75023,103.29097 h 0.975125"
         id="path978" />
      <path
         style="fill:none;stroke:#262626;stroke-width:0.3;stroke-linecap:butt;stroke-linejoin:round;stroke-miterlimit:4;stroke-dasharray:none;stroke-opacity:1"
         d="m 78.627767,167.24572 h -0.96391"
         id="path982" />
      <path
         style="fill:none;stroke:#262626;stroke-width:0.145708px;stroke-linecap:butt;stroke-linejoin:round;stroke-miterlimit:4;stroke-dasharray:none;stroke-opacity:1"
         d="m 78.627767,103.29097 h -0.96391"
         id="path992" />
      <text
         xml:space="preserve"
         style="font-style:normal;font-variant:normal;font-weight:400;font-size:4.93923px;line-height:125%;font-family:Arial;text-align:start;letter-spacing:0px;word-spacing:0px;text-anchor:start;fill:#000000;fill-opacity:1;stroke:none;stroke-width:0.429497"
         x="-29.456852"
         y="143.7878"
         id="text1012"
         transform="scale(1.0018438,0.99815958)"><tspan
           sodipodi:role="line"
           x="-29.456852"
           y="143.7878"
           id="tspan1010"
           style="stroke-width:0.429497"><tspan
             dx="0"
             dy="0"
             style="font-style:normal;font-variant:normal;font-weight:400;font-size:4.93923px;font-family:Arial;fill:#262626;stroke-width:0.429497"
             id="tspan1008">0.02</tspan></tspan></text>
      <text
         xml:space="preserve"
         style="font-style:normal;font-variant:normal;font-weight:400;font-size:4.93338px;line-height:125%;font-family:Arial;text-align:start;letter-spacing:0px;word-spacing:0px;text-anchor:start;fill:#000000;fill-opacity:1;stroke:none;stroke-width:0.428989"
         x="-29.491293"
         y="118.13541"
         id="text1024"
         transform="scale(1.0006574,0.99934306)"><tspan
           sodipodi:role="line"
           x="-29.491293"
           y="118.13541"
           id="tspan1022"
           style="stroke-width:0.428989"><tspan
             dx="0"
             dy="0"
             style="font-style:normal;font-variant:normal;font-weight:400;font-size:4.93338px;font-family:Arial;fill:#262626;stroke-width:0.428989"
             id="tspan1020">0.04</tspan></tspan></text>
      <text
         xml:space="preserve"
         style="font-style:normal;font-variant:normal;font-weight:400;font-size:4.93014px;line-height:125%;font-family:Arial;text-align:start;letter-spacing:0px;word-spacing:0px;text-anchor:start;fill:#000000;fill-opacity:1;stroke:none;stroke-width:0.428707"
         x="-29.51041"
         y="91.723343"
         id="text1036"><tspan
           sodipodi:role="line"
           x="-29.51041"
           y="91.723343"
           id="tspan1034"
           style="stroke-width:0.428707"><tspan
             dx="0"
             dy="0"
             style="font-style:normal;font-variant:normal;font-weight:400;font-size:4.93014px;font-family:Arial;fill:#262626;stroke-width:0.428707"
             id="tspan1032">0.06</tspan></tspan></text>
      <path
         style="fill:none;stroke:#0072bd;stroke-width:0.446;stroke-linecap:butt;stroke-linejoin:round;stroke-miterlimit:4;stroke-dasharray:none;stroke-opacity:1"
         d="m -18.739021,166.88705 0.08967,-0.20175 0.392292,-0.1345 0.481958,-0.54921 3.9005,-1.27775 4.8644167,-1.80454 38.9489593,-20.99321 48.688992,-40.98887"
         id="path1038" />
      <path
         style="fill:#0072bd;fill-opacity:1;fill-rule:nonzero;stroke:none;stroke-width:0.264583"
         d="m -18.739021,166.05763 c 0.459541,0 0.829416,0.36988 0.829416,0.82942 v 0 c 0,0.44833 -0.369875,0.81821 -0.829416,0.81821 -0.448334,0 -0.818209,-0.36988 -0.818209,-0.81821 0,-0.45954 0.369875,-0.82942 0.818209,-0.82942 z m 0,-0.1457 c -0.538,0 -0.963917,0.43712 -0.963917,0.97512 0,0.538 0.425917,0.96392 0.963917,0.96392 0.538,0 0.975125,-0.42592 0.975125,-0.96392 v 0 c 0,-0.538 -0.437125,-0.97512 -0.975125,-0.97512 z"
         id="path1040" />
      <path
         style="fill:#0072bd;fill-opacity:1;fill-rule:nonzero;stroke:none;stroke-width:0.264583"
         d="m -18.649355,165.86709 c 0.459542,0 0.818209,0.36988 0.818209,0.81821 v 0 c 0,0.45954 -0.358667,0.82942 -0.818209,0.82942 -0.448333,0 -0.818208,-0.36988 -0.818208,-0.82942 0,-0.44833 0.369875,-0.81821 0.818208,-0.81821 z m 0,-0.14571 c -0.538,0 -0.975125,0.42592 -0.975125,0.96392 0,0.538 0.437125,0.97513 0.975125,0.97513 0.538,0 0.975125,-0.43713 0.975125,-0.97513 v 0 c 0,-0.538 -0.437125,-0.96392 -0.975125,-0.96392 z"
         id="path1042" />
      <path
         style="fill:#0072bd;fill-opacity:1;fill-rule:nonzero;stroke:none;stroke-width:0.264583"
         d="m -18.257063,165.73259 c 0.448333,0 0.818208,0.35867 0.818208,0.81821 v 0 c 0,0.44834 -0.369875,0.81821 -0.818208,0.81821 -0.459542,0 -0.818208,-0.36987 -0.818208,-0.81821 0,-0.45954 0.358666,-0.81821 0.818208,-0.81821 z m 0,-0.15691 c -0.538,0 -0.975125,0.43712 -0.975125,0.97512 0,0.538 0.437125,0.97513 0.975125,0.97513 0.538,0 0.975125,-0.43713 0.975125,-0.97513 v 0 c 0,-0.538 -0.437125,-0.97512 -0.975125,-0.97512 z"
         id="path1044" />
      <path
         style="fill:#0072bd;fill-opacity:1;fill-rule:nonzero;stroke:none;stroke-width:0.264583"
         d="m -17.775105,165.18338 c 0.459542,0 0.829417,0.36988 0.829417,0.81821 v 0 c 0,0.45954 -0.369875,0.82942 -0.829417,0.82942 -0.448333,0 -0.818208,-0.36988 -0.818208,-0.82942 0,-0.44833 0.369875,-0.81821 0.818208,-0.81821 z m 0,-0.1457 c -0.538,0 -0.963916,0.43712 -0.963916,0.96391 0,0.538 0.425916,0.97513 0.963916,0.97513 0.538,0 0.975125,-0.43713 0.975125,-0.97513 v 0 c 0,-0.52679 -0.437125,-0.96391 -0.975125,-0.96391 z"
         id="path1046" />
      <path
         style="fill:#0072bd;fill-opacity:1;fill-rule:nonzero;stroke:none;stroke-width:0.264583"
         d="m -13.874605,163.89442 c 0.448334,0 0.818209,0.36988 0.818209,0.82942 v 0 c 0,0.44834 -0.369875,0.81821 -0.818209,0.81821 -0.459541,0 -0.818208,-0.36987 -0.818208,-0.81821 0,-0.45954 0.358667,-0.82942 0.818208,-0.82942 z m 0,-0.1457 c -0.538,0 -0.975125,0.43712 -0.975125,0.97512 0,0.538 0.437125,0.96392 0.975125,0.96392 0.538,0 0.975125,-0.42592 0.975125,-0.96392 v 0 c 0,-0.538 -0.437125,-0.97512 -0.975125,-0.97512 z"
         id="path1048" />
      <path
         style="fill:#0072bd;fill-opacity:1;fill-rule:nonzero;stroke:none;stroke-width:0.264583"
         d="m -9.0101883,162.08988 c 0.459543,0 0.829417,0.36988 0.829417,0.82942 v 0 c 0,0.44833 -0.369874,0.81821 -0.829417,0.81821 -0.448333,0 -0.818208,-0.36988 -0.818208,-0.81821 0,-0.45954 0.369875,-0.82942 0.818208,-0.82942 z m 0,-0.1457 c -0.538,0 -0.963917,0.43712 -0.963917,0.97512 0,0.538 0.425917,0.96392 0.963917,0.96392 0.538,0 0.975126,-0.42592 0.975126,-0.96392 v 0 c 0,-0.538 -0.437126,-0.97512 -0.975126,-0.97512 z"
         id="path1050" />
      <path
         style="fill:#0072bd;fill-opacity:1;fill-rule:nonzero;stroke:none;stroke-width:0.264583"
         d="m 29.938771,141.10788 c 0.459542,0 0.829416,0.36988 0.829416,0.81821 v 0 c 0,0.45954 -0.369874,0.81821 -0.829416,0.81821 -0.448334,0 -0.818208,-0.35867 -0.818208,-0.81821 0,-0.44833 0.369874,-0.81821 0.818208,-0.81821 z m 0,-0.15691 c -0.526793,0 -0.963917,0.43712 -0.963917,0.97512 0,0.538 0.437124,0.97513 0.963917,0.97513 0.537998,0 0.975125,-0.43713 0.975125,-0.97513 v 0 c 0,-0.538 -0.437127,-0.97512 -0.975125,-0.97512 z"
         id="path1052" />
      <path
         style="fill:#0072bd;fill-opacity:1;fill-rule:nonzero;stroke:none;stroke-width:0.264583"
         d="m 78.627767,100.11901 c 0.45955,0 0.82942,0.36987 0.82942,0.81821 v 0 c 0,0.45954 -0.36987,0.81821 -0.82942,0.81821 -0.44833,0 -0.81821,-0.35867 -0.81821,-0.81821 0,-0.44834 0.36988,-0.81821 0.81821,-0.81821 z m 0,-0.156917 c -0.52679,0 -0.96391,0.437127 -0.96391,0.975127 0,0.538 0.43712,0.97512 0.96391,0.97512 0.538,0 0.97513,-0.43712 0.97513,-0.97512 v 0 c 0,-0.538 -0.43713,-0.975127 -0.97513,-0.975127 z"
         id="path1054" />
      <path
         style="fill:none;stroke:#d95319;stroke-width:0.446;stroke-linecap:butt;stroke-linejoin:round;stroke-miterlimit:4;stroke-dasharray:none;stroke-opacity:1"
         d="m -18.694188,166.76376 0.04483,-0.0112 0.392292,-0.54921 0.481958,0.0673 3.9005,-2.37617 4.8644167,-1.345 38.9489593,-38.91533 48.688999,-24.490207"
         id="path1056" />
      <path
         style="fill:#d95319;fill-opacity:1;fill-rule:nonzero;stroke:none;stroke-width:0.264583"
         d="m -18.694188,165.93434 c 0.448333,0 0.818208,0.36988 0.818208,0.82942 v 0 c 0,0.44833 -0.369875,0.81821 -0.818208,0.81821 -0.459542,0 -0.829417,-0.36988 -0.829417,-0.81821 0,-0.45954 0.369875,-0.82942 0.829417,-0.82942 z m 0,-0.14571 c -0.538,0 -0.975125,0.43713 -0.975125,0.97513 0,0.52679 0.437125,0.96392 0.975125,0.96392 0.538,0 0.963917,-0.43713 0.963917,-0.96392 v 0 c 0,-0.538 -0.425917,-0.97513 -0.963917,-0.97513 z"
         id="path1058" />
      <path
         style="fill:#d95319;fill-opacity:1;fill-rule:nonzero;stroke:none;stroke-width:0.264583"
         d="m -18.649355,165.92313 c 0.459542,0 0.818209,0.36988 0.818209,0.82942 v 0 c 0,0.44833 -0.358667,0.81821 -0.818209,0.81821 -0.448333,0 -0.818208,-0.36988 -0.818208,-0.81821 0,-0.45954 0.369875,-0.82942 0.818208,-0.82942 z m 0,-0.14571 c -0.538,0 -0.975125,0.43713 -0.975125,0.97513 0,0.538 0.437125,0.96392 0.975125,0.96392 0.538,0 0.975125,-0.42592 0.975125,-0.96392 v 0 c 0,-0.538 -0.437125,-0.97513 -0.975125,-0.97513 z"
         id="path1060" />
      <path
         style="fill:#d95319;fill-opacity:1;fill-rule:nonzero;stroke:none;stroke-width:0.264583"
         d="m -18.257063,165.37393 c 0.448333,0 0.818208,0.36987 0.818208,0.82941 v 0 c 0,0.44834 -0.369875,0.81821 -0.818208,0.81821 -0.459542,0 -0.818208,-0.36987 -0.818208,-0.81821 0,-0.45954 0.358666,-0.82941 0.818208,-0.82941 z m 0,-0.14571 c -0.538,0 -0.975125,0.43712 -0.975125,0.97512 0,0.52679 0.437125,0.96392 0.975125,0.96392 0.538,0 0.975125,-0.43713 0.975125,-0.96392 v 0 c 0,-0.538 -0.437125,-0.97512 -0.975125,-0.97512 z"
         id="path1062" />
      <path
         style="fill:#d95319;fill-opacity:1;fill-rule:nonzero;stroke:none;stroke-width:0.264583"
         d="m -17.775105,165.44118 c 0.459542,0 0.829417,0.36987 0.829417,0.82941 v 0 c 0,0.44834 -0.369875,0.81821 -0.829417,0.81821 -0.448333,0 -0.818208,-0.36987 -0.818208,-0.81821 0,-0.45954 0.369875,-0.82941 0.818208,-0.82941 z m 0,-0.14571 c -0.538,0 -0.963916,0.43712 -0.963916,0.97512 0,0.538 0.425916,0.96392 0.963916,0.96392 0.538,0 0.975125,-0.42592 0.975125,-0.96392 v 0 c 0,-0.538 -0.437125,-0.97512 -0.975125,-0.97512 z"
         id="path1064" />
      <path
         style="fill:#d95319;fill-opacity:1;fill-rule:nonzero;stroke:none;stroke-width:0.264583"
         d="m -13.874605,163.06501 c 0.448334,0 0.818209,0.36987 0.818209,0.82941 v 0 c 0,0.44834 -0.369875,0.81822 -0.818209,0.81822 -0.459541,0 -0.818208,-0.36988 -0.818208,-0.81822 0,-0.45954 0.358667,-0.82941 0.818208,-0.82941 z m 0,-0.14571 c -0.538,0 -0.975125,0.43713 -0.975125,0.97512 0,0.53801 0.437125,0.96392 0.975125,0.96392 0.538,0 0.975125,-0.42591 0.975125,-0.96392 v 0 c 0,-0.53799 -0.437125,-0.97512 -0.975125,-0.97512 z"
         id="path1066" />
      <path
         style="fill:#d95319;fill-opacity:1;fill-rule:nonzero;stroke:none;stroke-width:0.264583"
         d="m -9.0101883,161.73122 c 0.459543,0 0.829417,0.35866 0.829417,0.81821 v 0 c 0,0.44833 -0.369874,0.8182 -0.829417,0.8182 -0.448333,0 -0.818208,-0.36987 -0.818208,-0.8182 0,-0.45955 0.369875,-0.81821 0.818208,-0.81821 z m 0,-0.15692 c -0.538,0 -0.963917,0.43712 -0.963917,0.97513 0,0.538 0.425917,0.97512 0.963917,0.97512 0.538,0 0.975126,-0.43712 0.975126,-0.97512 v 0 c 0,-0.53801 -0.437126,-0.97513 -0.975126,-0.97513 z"
         id="path1068" />
      <path
         style="fill:#d95319;fill-opacity:1;fill-rule:nonzero;stroke:none;stroke-width:0.264583"
         d="m 29.938771,122.81588 c 0.459542,0 0.829416,0.36988 0.829416,0.81821 v 0 c 0,0.45955 -0.369874,0.81821 -0.829416,0.81821 -0.448334,0 -0.818208,-0.35866 -0.818208,-0.81821 0,-0.44833 0.369874,-0.81821 0.818208,-0.81821 z m 0,-0.15691 c -0.526793,0 -0.963917,0.43712 -0.963917,0.97512 0,0.538 0.437124,0.97513 0.963917,0.97513 0.537998,0 0.975125,-0.43713 0.975125,-0.97513 v 0 c 0,-0.538 -0.437127,-0.97512 -0.975125,-0.97512 z"
         id="path1070" />
      <path
         style="fill:#d95319;fill-opacity:1;fill-rule:nonzero;stroke:none;stroke-width:0.264583"
         d="m 78.627767,98.314468 c 0.45955,0 0.82942,0.369875 0.82942,0.829416 v 0 c 0,0.448334 -0.36987,0.818209 -0.82942,0.818209 -0.44833,0 -0.81821,-0.369875 -0.81821,-0.818209 0,-0.459541 0.36988,-0.829416 0.81821,-0.829416 z m 0,-0.145709 c -0.52679,0 -0.96391,0.437125 -0.96391,0.975125 0,0.538 0.43712,0.963916 0.96391,0.963916 0.538,0 0.97513,-0.425916 0.97513,-0.963916 v 0 c 0,-0.538 -0.43713,-0.975125 -0.97513,-0.975125 z"
         id="path1072" />
      <path
         style="fill:none;stroke:#edb120;stroke-width:0.446;stroke-linecap:butt;stroke-linejoin:round;stroke-miterlimit:4;stroke-dasharray:none;stroke-opacity:1"
         d="m -18.671771,166.74134 0.02242,0.15692 0.392292,-0.65008 0.481958,-0.0336 3.9005,-1.81575 4.8644167,-1.7373 38.9489593,-30.29612 48.688992,-30.55392"
         id="path1074" />
      <path
         style="fill:#edb120;fill-opacity:1;fill-rule:nonzero;stroke:none;stroke-width:0.264583"
         d="m -18.671771,165.92313 c 0.448333,0 0.818208,0.35867 0.818208,0.81821 v 0 c 0,0.44833 -0.369875,0.81821 -0.818208,0.81821 -0.459542,0 -0.818209,-0.36988 -0.818209,-0.81821 0,-0.45954 0.358667,-0.81821 0.818209,-0.81821 z m 0,-0.15691 c -0.538,0 -0.975125,0.43712 -0.975125,0.97512 0,0.538 0.437125,0.97513 0.975125,0.97513 0.538,0 0.975125,-0.43713 0.975125,-0.97513 v 0 c 0,-0.538 -0.437125,-0.97512 -0.975125,-0.97512 z"
         id="path1076" />
      <path
         style="fill:#edb120;fill-opacity:1;fill-rule:nonzero;stroke:none;stroke-width:0.264583"
         d="m -18.649355,166.08005 c 0.459542,0 0.818209,0.36988 0.818209,0.81821 v 0 c 0,0.45954 -0.358667,0.82942 -0.818209,0.82942 -0.448333,0 -0.818208,-0.36988 -0.818208,-0.82942 0,-0.44833 0.369875,-0.81821 0.818208,-0.81821 z m 0,-0.14571 c -0.538,0 -0.975125,0.42592 -0.975125,0.96392 0,0.538 0.437125,0.97512 0.975125,0.97512 0.538,0 0.975125,-0.43712 0.975125,-0.97512 v 0 c 0,-0.538 -0.437125,-0.96392 -0.975125,-0.96392 z"
         id="path1078" />
      <path
         style="fill:#edb120;fill-opacity:1;fill-rule:nonzero;stroke:none;stroke-width:0.264583"
         d="m -18.257063,165.42997 c 0.448333,0 0.818208,0.36987 0.818208,0.81821 v 0 c 0,0.45954 -0.369875,0.82941 -0.818208,0.82941 -0.459542,0 -0.818208,-0.36987 -0.818208,-0.82941 0,-0.44834 0.358666,-0.81821 0.818208,-0.81821 z m 0,-0.14571 c -0.538,0 -0.975125,0.43712 -0.975125,0.96392 0,0.53799 0.437125,0.97512 0.975125,0.97512 0.538,0 0.975125,-0.43713 0.975125,-0.97512 v 0 c 0,-0.5268 -0.437125,-0.96392 -0.975125,-0.96392 z"
         id="path1080" />
      <path
         style="fill:#edb120;fill-opacity:1;fill-rule:nonzero;stroke:none;stroke-width:0.264583"
         d="m -17.775105,165.38513 c 0.459542,0 0.829417,0.36988 0.829417,0.82942 v 0 c 0,0.44833 -0.369875,0.81821 -0.829417,0.81821 -0.448333,0 -0.818208,-0.36988 -0.818208,-0.81821 0,-0.45954 0.369875,-0.82942 0.818208,-0.82942 z m 0,-0.1457 c -0.538,0 -0.963916,0.43712 -0.963916,0.97512 0,0.538 0.425916,0.96392 0.963916,0.96392 0.538,0 0.975125,-0.42592 0.975125,-0.96392 v 0 c 0,-0.538 -0.437125,-0.97512 -0.975125,-0.97512 z"
         id="path1082" />
      <path
         style="fill:#edb120;fill-opacity:1;fill-rule:nonzero;stroke:none;stroke-width:0.264583"
         d="m -13.874605,163.58059 c 0.448334,0 0.818209,0.35867 0.818209,0.81821 v 0 c 0,0.44833 -0.369875,0.81821 -0.818209,0.81821 -0.459541,0 -0.818208,-0.36988 -0.818208,-0.81821 0,-0.45954 0.358667,-0.81821 0.818208,-0.81821 z m 0,-0.15692 c -0.538,0 -0.975125,0.43713 -0.975125,0.97513 0,0.538 0.437125,0.97513 0.975125,0.97513 0.538,0 0.975125,-0.43713 0.975125,-0.97513 v 0 c 0,-0.538 -0.437125,-0.97513 -0.975125,-0.97513 z"
         id="path1084" />
      <path
         style="fill:#edb120;fill-opacity:1;fill-rule:nonzero;stroke:none;stroke-width:0.264583"
         d="m -9.0101883,161.8433 c 0.459543,0 0.829417,0.36987 0.829417,0.81821 v 0 c 0,0.45954 -0.369874,0.82942 -0.829417,0.82942 -0.448333,0 -0.818208,-0.36988 -0.818208,-0.82942 0,-0.44834 0.369875,-0.81821 0.818208,-0.81821 z m 0,-0.14571 c -0.538,0 -0.963917,0.43713 -0.963917,0.96392 0,0.538 0.425917,0.97512 0.963917,0.97512 0.538,0 0.975126,-0.43712 0.975126,-0.97512 v 0 c 0,-0.52679 -0.437126,-0.96392 -0.975126,-0.96392 z"
         id="path1086" />
      <path
         style="fill:#edb120;fill-opacity:1;fill-rule:nonzero;stroke:none;stroke-width:0.264583"
         d="m 29.938771,131.53597 c 0.459542,0 0.829416,0.36987 0.829416,0.82941 v 0 c 0,0.44834 -0.369874,0.81821 -0.829416,0.81821 -0.448334,0 -0.818208,-0.36987 -0.818208,-0.81821 0,-0.45954 0.369874,-0.82941 0.818208,-0.82941 z m 0,-0.14571 c -0.526793,0 -0.963917,0.43712 -0.963917,0.97512 0,0.538 0.437124,0.96392 0.963917,0.96392 0.537998,0 0.975125,-0.42592 0.975125,-0.96392 v 0 c 0,-0.538 -0.437127,-0.97512 -0.975125,-0.97512 z"
         id="path1088" />
      <path
         style="fill:#edb120;fill-opacity:1;fill-rule:nonzero;stroke:none;stroke-width:0.264583"
         d="m 78.627767,100.99326 c 0.45955,0 0.82942,0.36987 0.82942,0.81821 v 0 c 0,0.45954 -0.36987,0.82941 -0.82942,0.82941 -0.44833,0 -0.81821,-0.36987 -0.81821,-0.82941 0,-0.44834 0.36988,-0.81821 0.81821,-0.81821 z m 0,-0.14571 c -0.52679,0 -0.96391,0.42592 -0.96391,0.96392 0,0.538 0.43712,0.97512 0.96391,0.97512 0.538,0 0.97513,-0.43712 0.97513,-0.97512 v 0 c 0,-0.538 -0.43713,-0.96392 -0.97513,-0.96392 z"
         id="path1090" />
      <path
         style="fill:none;stroke:#7e2f8e;stroke-width:0.446;stroke-linecap:butt;stroke-linejoin:round;stroke-miterlimit:4;stroke-dasharray:none;stroke-opacity:1"
         d="m -18.54848,166.08005 0.291417,0.17933 0.481958,-0.0448 3.9005,-1.7485 4.8644167,-1.56916 38.9489593,-26.60859 48.688996,-33.84916"
         id="path1092" />
      <path
         style="fill:#7e2f8e;fill-opacity:1;fill-rule:nonzero;stroke:none;stroke-width:0.264583"
         d="m -18.54848,165.25063 c 0.448334,0 0.818209,0.36988 0.818209,0.82942 v 0 c 0,0.44833 -0.369875,0.81821 -0.818209,0.81821 -0.459541,0 -0.818208,-0.36988 -0.818208,-0.81821 0,-0.45954 0.358667,-0.82942 0.818208,-0.82942 z m 0,-0.14571 c -0.538,0 -0.975125,0.43713 -0.975125,0.97513 0,0.538 0.437125,0.96392 0.975125,0.96392 0.538,0 0.975125,-0.42592 0.975125,-0.96392 v 0 c 0,-0.538 -0.437125,-0.97513 -0.975125,-0.97513 z"
         id="path1094" />
      <path
         style="fill:#7e2f8e;fill-opacity:1;fill-rule:nonzero;stroke:none;stroke-width:0.264583"
         d="m -18.257063,165.44118 c 0.448333,0 0.818208,0.36987 0.818208,0.8182 v 0 c 0,0.45955 -0.369875,0.82942 -0.818208,0.82942 -0.459542,0 -0.818208,-0.36987 -0.818208,-0.82942 0,-0.44833 0.358666,-0.8182 0.818208,-0.8182 z m 0,-0.14571 c -0.538,0 -0.975125,0.42591 -0.975125,0.96391 0,0.53801 0.437125,0.97513 0.975125,0.97513 0.538,0 0.975125,-0.43712 0.975125,-0.97513 v 0 c 0,-0.538 -0.437125,-0.96391 -0.975125,-0.96391 z"
         id="path1096" />
      <path
         style="fill:#7e2f8e;fill-opacity:1;fill-rule:nonzero;stroke:none;stroke-width:0.264583"
         d="m -17.775105,165.39634 c 0.459542,0 0.829417,0.36988 0.829417,0.81821 v 0 c 0,0.45954 -0.369875,0.81821 -0.829417,0.81821 -0.448333,0 -0.818208,-0.35867 -0.818208,-0.81821 0,-0.44833 0.369875,-0.81821 0.818208,-0.81821 z m 0,-0.15691 c -0.538,0 -0.963916,0.43712 -0.963916,0.97512 0,0.538 0.425916,0.97512 0.963916,0.97512 0.538,0 0.975125,-0.43712 0.975125,-0.97512 v 0 c 0,-0.538 -0.437125,-0.97512 -0.975125,-0.97512 z"
         id="path1098" />
      <path
         style="fill:#7e2f8e;fill-opacity:1;fill-rule:nonzero;stroke:none;stroke-width:0.264583"
         d="m -13.874605,163.63663 c 0.448334,0 0.818209,0.36988 0.818209,0.82942 v 0 c 0,0.44834 -0.369875,0.81821 -0.818209,0.81821 -0.459541,0 -0.818208,-0.36987 -0.818208,-0.81821 0,-0.45954 0.358667,-0.82942 0.818208,-0.82942 z m 0,-0.1457 c -0.538,0 -0.975125,0.43712 -0.975125,0.97512 0,0.538 0.437125,0.96392 0.975125,0.96392 0.538,0 0.975125,-0.42592 0.975125,-0.96392 v 0 c 0,-0.538 -0.437125,-0.97512 -0.975125,-0.97512 z"
         id="path1100" />
      <path
         style="fill:#7e2f8e;fill-opacity:1;fill-rule:nonzero;stroke:none;stroke-width:0.264583"
         d="m -9.0101883,162.07868 c 0.459543,0 0.829417,0.36987 0.829417,0.8182 v 0 c 0,0.45955 -0.369874,0.82942 -0.829417,0.82942 -0.448333,0 -0.818208,-0.36987 -0.818208,-0.82942 0,-0.44833 0.369875,-0.8182 0.818208,-0.8182 z m 0,-0.14571 c -0.538,0 -0.963917,0.42591 -0.963917,0.96391 0,0.538 0.425917,0.97513 0.963917,0.97513 0.538,0 0.975126,-0.43713 0.975126,-0.97513 v 0 c 0,-0.538 -0.437126,-0.96391 -0.975126,-0.96391 z"
         id="path1102" />
      <path
         style="fill:#7e2f8e;fill-opacity:1;fill-rule:nonzero;stroke:none;stroke-width:0.264583"
         d="m 29.938771,135.47009 c 0.459542,0 0.829416,0.36988 0.829416,0.81821 v 0 c 0,0.45954 -0.369874,0.81821 -0.829416,0.81821 -0.448334,0 -0.818208,-0.35867 -0.818208,-0.81821 0,-0.44833 0.369874,-0.81821 0.818208,-0.81821 z m 0,-0.15692 c -0.526793,0 -0.963917,0.43713 -0.963917,0.97513 0,0.538 0.437124,0.97513 0.963917,0.97513 0.537998,0 0.975125,-0.43713 0.975125,-0.97513 v 0 c 0,-0.538 -0.437127,-0.97513 -0.975125,-0.97513 z"
         id="path1104" />
      <path
         style="fill:#7e2f8e;fill-opacity:1;fill-rule:nonzero;stroke:none;stroke-width:0.264583"
         d="m 78.627767,101.62093 c 0.45955,0 0.82942,0.36987 0.82942,0.8182 v 0 c 0,0.45955 -0.36987,0.82942 -0.82942,0.82942 -0.44833,0 -0.81821,-0.36987 -0.81821,-0.82942 0,-0.44833 0.36988,-0.8182 0.81821,-0.8182 z m 0,-0.14571 c -0.52679,0 -0.96391,0.42591 -0.96391,0.96391 0,0.538 0.43712,0.97513 0.96391,0.97513 0.538,0 0.97513,-0.43713 0.97513,-0.97513 v 0 c 0,-0.538 -0.43713,-0.96391 -0.97513,-0.96391 z"
         id="path1106" />
      <path
         style="fill:none;stroke:#77ac30;stroke-width:0.446;stroke-linecap:butt;stroke-linejoin:round;stroke-miterlimit:4;stroke-dasharray:none;stroke-opacity:1"
         d="m -18.54848,166.75255 0.291417,-0.16813 0.481958,-0.20175 3.9005,-1.6252 4.8644167,-2.23046 38.9489593,-25.52137 48.688996,-30.73326"
         id="path1108" />
      <path
         style="fill:#77ac30;fill-opacity:1;fill-rule:nonzero;stroke:none;stroke-width:0.264583"
         d="m -18.54848,165.93434 c 0.448334,0 0.818209,0.36988 0.818209,0.81821 v 0 c 0,0.45954 -0.369875,0.82942 -0.818209,0.82942 -0.459541,0 -0.818208,-0.36988 -0.818208,-0.82942 0,-0.44833 0.358667,-0.81821 0.818208,-0.81821 z m 0,-0.14571 c -0.538,0 -0.975125,0.42592 -0.975125,0.96392 0,0.538 0.437125,0.97513 0.975125,0.97513 0.538,0 0.975125,-0.43713 0.975125,-0.97513 v 0 c 0,-0.538 -0.437125,-0.96392 -0.975125,-0.96392 z"
         id="path1110" />
      <path
         style="fill:#77ac30;fill-opacity:1;fill-rule:nonzero;stroke:none;stroke-width:0.264583"
         d="m -18.257063,165.76622 c 0.448333,0 0.818208,0.35866 0.818208,0.8182 v 0 c 0,0.44834 -0.369875,0.81821 -0.818208,0.81821 -0.459542,0 -0.818208,-0.36987 -0.818208,-0.81821 0,-0.45954 0.358666,-0.8182 0.818208,-0.8182 z m 0,-0.15692 c -0.538,0 -0.975125,0.43713 -0.975125,0.97512 0,0.53801 0.437125,0.97513 0.975125,0.97513 0.538,0 0.975125,-0.43712 0.975125,-0.97513 v 0 c 0,-0.53799 -0.437125,-0.97512 -0.975125,-0.97512 z"
         id="path1112" />
      <path
         style="fill:#77ac30;fill-opacity:1;fill-rule:nonzero;stroke:none;stroke-width:0.264583"
         d="m -17.775105,165.56447 c 0.459542,0 0.829417,0.36987 0.829417,0.8182 v 0 c 0,0.45955 -0.369875,0.81821 -0.829417,0.81821 -0.448333,0 -0.818208,-0.35866 -0.818208,-0.81821 0,-0.44833 0.369875,-0.8182 0.818208,-0.8182 z m 0,-0.15692 c -0.538,0 -0.963916,0.43713 -0.963916,0.97512 0,0.53801 0.425916,0.97513 0.963916,0.97513 0.538,0 0.975125,-0.43712 0.975125,-0.97513 v 0 c 0,-0.53799 -0.437125,-0.97512 -0.975125,-0.97512 z"
         id="path1114" />
      <path
         style="fill:#77ac30;fill-opacity:1;fill-rule:nonzero;stroke:none;stroke-width:0.264583"
         d="m -13.874605,163.93926 c 0.448334,0 0.818209,0.36987 0.818209,0.81821 v 0 c 0,0.45954 -0.369875,0.81821 -0.818209,0.81821 -0.459541,0 -0.818208,-0.35867 -0.818208,-0.81821 0,-0.44834 0.358667,-0.81821 0.818208,-0.81821 z m 0,-0.15692 c -0.538,0 -0.975125,0.43713 -0.975125,0.97513 0,0.538 0.437125,0.97512 0.975125,0.97512 0.538,0 0.975125,-0.43712 0.975125,-0.97512 v 0 c 0,-0.538 -0.437125,-0.97513 -0.975125,-0.97513 z"
         id="path1116" />
      <path
         style="fill:#77ac30;fill-opacity:1;fill-rule:nonzero;stroke:none;stroke-width:0.264583"
         d="m -9.0101883,161.69759 c 0.459543,0 0.829417,0.36988 0.829417,0.82942 v 0 c 0,0.44833 -0.369874,0.81821 -0.829417,0.81821 -0.448333,0 -0.818208,-0.36988 -0.818208,-0.81821 0,-0.45954 0.369875,-0.82942 0.818208,-0.82942 z m 0,-0.14571 c -0.538,0 -0.963917,0.43713 -0.963917,0.97513 0,0.52679 0.425917,0.96392 0.963917,0.96392 0.538,0 0.975126,-0.43713 0.975126,-0.96392 v 0 c 0,-0.538 -0.437126,-0.97513 -0.975126,-0.97513 z"
         id="path1118" />
      <path
         style="fill:#77ac30;fill-opacity:1;fill-rule:nonzero;stroke:none;stroke-width:0.264583"
         d="m 29.938771,136.18742 c 0.459542,0 0.829416,0.35867 0.829416,0.81822 v 0 c 0,0.44833 -0.369874,0.8182 -0.829416,0.8182 -0.448334,0 -0.818208,-0.36987 -0.818208,-0.8182 0,-0.45955 0.369874,-0.81822 0.818208,-0.81822 z m 0,-0.15691 c -0.526793,0 -0.963917,0.43712 -0.963917,0.97513 0,0.53799 0.437124,0.97512 0.963917,0.97512 0.537998,0 0.975125,-0.43713 0.975125,-0.97512 v 0 c 0,-0.53801 -0.437127,-0.97513 -0.975125,-0.97513 z"
         id="path1120" />
      <path
         style="fill:#77ac30;fill-opacity:1;fill-rule:nonzero;stroke:none;stroke-width:0.264583"
         d="m 78.627767,105.44297 c 0.45955,0 0.82942,0.36987 0.82942,0.82941 v 0 c 0,0.44834 -0.36987,0.81821 -0.82942,0.81821 -0.44833,0 -0.81821,-0.36987 -0.81821,-0.81821 0,-0.45954 0.36988,-0.82941 0.81821,-0.82941 z m 0,-0.14571 c -0.52679,0 -0.96391,0.43712 -0.96391,0.97512 0,0.538 0.43712,0.96392 0.96391,0.96392 0.538,0 0.97513,-0.42592 0.97513,-0.96392 v 0 c 0,-0.538 -0.43713,-0.97512 -0.97513,-0.97512 z"
         id="path1122" />
      <path
         style="fill:#ffffff;fill-opacity:1;fill-rule:evenodd;stroke:none;stroke-width:0.392337"
         d="m 49.62787,130.48609 v 28.71988 h 26.060638 v -28.71988 z"
         id="path1124" />
      <text
         xml:space="preserve"
         style="font-style:normal;font-variant:normal;font-weight:400;font-size:3.99694px;line-height:125%;font-family:Arial;text-align:start;letter-spacing:0px;word-spacing:0px;text-anchor:start;fill:#000000;fill-opacity:1;stroke:none;stroke-width:0.392337"
         x="65.317429"
         y="135.53864"
         id="text1130"><tspan
           sodipodi:role="line"
           x="65.317429"
           y="135.53864"
           id="tspan1128"
           style="stroke-width:0.392337"><tspan
             dx="0"
             dy="0"
             style="font-style:normal;font-variant:normal;font-weight:400;font-size:3.99694px;font-family:Arial;fill:#000000;stroke-width:0.392337"
             id="tspan1126">50</tspan></tspan></text>
      <path
         style="fill:none;stroke:#0072bd;stroke-width:0.216063px;stroke-linecap:butt;stroke-linejoin:round;stroke-miterlimit:4;stroke-dasharray:none;stroke-opacity:1"
         d="M 50.974112,133.82676 H 64.303598"
         id="path1132" />
      <path
         style="fill:#0072bd;fill-opacity:1;fill-rule:nonzero;stroke:none;stroke-width:0.392337"
         d="m 57.638855,132.61348 c 0.664812,0 1.213281,0.54847 1.213281,1.21328 v 0 c 0,0.68144 -0.548469,1.22991 -1.213281,1.22991 -0.681433,0 -1.229902,-0.54847 -1.229902,-1.22991 0,-0.66481 0.548469,-1.21328 1.229902,-1.21328 z m 0,-0.21606 c -0.797777,0 -1.445966,0.64819 -1.445966,1.42934 0,0.79778 0.648189,1.44598 1.445966,1.44598 0.797771,0 1.429347,-0.6482 1.429347,-1.44598 v 0 c 0,-0.78115 -0.631576,-1.42934 -1.429347,-1.42934 z"
         id="path1134" />
      <text
         xml:space="preserve"
         style="font-style:normal;font-variant:normal;font-weight:400;font-size:3.99694px;line-height:125%;font-family:Arial;text-align:start;letter-spacing:0px;word-spacing:0px;text-anchor:start;fill:#000000;fill-opacity:1;stroke:none;stroke-width:0.392337"
         x="65.317429"
         y="140.85715"
         id="text1140"><tspan
           sodipodi:role="line"
           x="65.317429"
           y="140.85715"
           id="tspan1138"
           style="stroke-width:0.392337"><tspan
             dx="0"
             dy="0"
             style="font-style:normal;font-variant:normal;font-weight:400;font-size:3.99694px;font-family:Arial;fill:#000000;stroke-width:0.392337"
             id="tspan1136">100</tspan></tspan></text>
      <path
         style="fill:none;stroke:#d95319;stroke-width:0.216063px;stroke-linecap:butt;stroke-linejoin:round;stroke-miterlimit:4;stroke-dasharray:none;stroke-opacity:1"
         d="M 50.974112,139.34471 H 64.303598"
         id="path1142" />
      <path
         style="fill:#d95319;fill-opacity:1;fill-rule:nonzero;stroke:none;stroke-width:0.392337"
         d="m 57.638855,138.13143 c 0.664812,0 1.213281,0.53185 1.213281,1.21328 v 0 c 0,0.6648 -0.548469,1.21329 -1.213281,1.21329 -0.681433,0 -1.229902,-0.54849 -1.229902,-1.21329 0,-0.68143 0.548469,-1.21328 1.229902,-1.21328 z m 0,-0.23269 c -0.797777,0 -1.445966,0.64819 -1.445966,1.44597 0,0.79777 0.648189,1.44595 1.445966,1.44595 0.797771,0 1.429347,-0.64818 1.429347,-1.44595 v 0 c 0,-0.79778 -0.631576,-1.44597 -1.429347,-1.44597 z"
         id="path1144" />
      <text
         xml:space="preserve"
         style="font-style:normal;font-variant:normal;font-weight:400;font-size:3.99694px;line-height:125%;font-family:Arial;text-align:start;letter-spacing:0px;word-spacing:0px;text-anchor:start;fill:#000000;fill-opacity:1;stroke:none;stroke-width:0.392337"
         x="65.317429"
         y="146.44157"
         id="text1150"><tspan
           sodipodi:role="line"
           x="65.317429"
           y="146.44157"
           id="tspan1148"
           style="stroke-width:0.392337"><tspan
             dx="0"
             dy="0"
             style="font-style:normal;font-variant:normal;font-weight:400;font-size:3.99694px;font-family:Arial;fill:#000000;stroke-width:0.392337"
             id="tspan1146">500</tspan></tspan></text>
      <path
         style="fill:none;stroke:#edb120;stroke-width:0.216063px;stroke-linecap:butt;stroke-linejoin:round;stroke-miterlimit:4;stroke-dasharray:none;stroke-opacity:1"
         d="M 50.974112,144.84604 H 64.303598"
         id="path1152" />
      <path
         style="fill:#edb120;fill-opacity:1;fill-rule:nonzero;stroke:none;stroke-width:0.392337"
         d="m 57.638855,143.63275 c 0.664812,0 1.213281,0.54846 1.213281,1.21329 v 0 c 0,0.68142 -0.548469,1.22988 -1.213281,1.22988 -0.681433,0 -1.229902,-0.54846 -1.229902,-1.22988 0,-0.66483 0.548469,-1.21329 1.229902,-1.21329 z m 0,-0.21607 c -0.797777,0 -1.445966,0.6482 -1.445966,1.42936 0,0.79776 0.648189,1.44595 1.445966,1.44595 0.797771,0 1.429347,-0.64819 1.429347,-1.44595 v 0 c 0,-0.78116 -0.631576,-1.42936 -1.429347,-1.42936 z"
         id="path1154" />
      <text
         xml:space="preserve"
         style="font-style:normal;font-variant:normal;font-weight:400;font-size:3.99694px;line-height:125%;font-family:Arial;text-align:start;letter-spacing:0px;word-spacing:0px;text-anchor:start;fill:#000000;fill-opacity:1;stroke:none;stroke-width:0.392337"
         x="65.317429"
         y="152.02597"
         id="text1160"><tspan
           sodipodi:role="line"
           x="65.317429"
           y="152.02597"
           id="tspan1158"
           style="stroke-width:0.392337"><tspan
             dx="0"
             dy="0"
             style="font-style:normal;font-variant:normal;font-weight:400;font-size:3.99694px;font-family:Arial;fill:#000000;stroke-width:0.392337"
             id="tspan1156">1000</tspan></tspan></text>
      <path
         style="fill:none;stroke:#7e2f8e;stroke-width:0.216063px;stroke-linecap:butt;stroke-linejoin:round;stroke-miterlimit:4;stroke-dasharray:none;stroke-opacity:1"
         d="M 50.974112,150.36396 H 64.303598"
         id="path1162" />
      <path
         style="fill:#7e2f8e;fill-opacity:1;fill-rule:nonzero;stroke:none;stroke-width:0.392337"
         d="m 57.638855,149.15069 c 0.664812,0 1.213281,0.54846 1.213281,1.21327 v 0 c 0,0.68144 -0.548469,1.21329 -1.213281,1.21329 -0.681433,0 -1.229902,-0.53185 -1.229902,-1.21329 0,-0.66481 0.548469,-1.21327 1.229902,-1.21327 z m 0,-0.23269 c -0.797777,0 -1.445966,0.64818 -1.445966,1.44596 0,0.79778 0.648189,1.44598 1.445966,1.44598 0.797771,0 1.429347,-0.6482 1.429347,-1.44598 v 0 c 0,-0.79778 -0.631576,-1.44596 -1.429347,-1.44596 z"
         id="path1164" />
      <text
         xml:space="preserve"
         style="font-style:normal;font-variant:normal;font-weight:400;font-size:3.99694px;line-height:125%;font-family:Arial;text-align:start;letter-spacing:0px;word-spacing:0px;text-anchor:start;fill:#000000;fill-opacity:1;stroke:none;stroke-width:0.392337"
         x="65.317429"
         y="157.34448"
         id="text1170"><tspan
           sodipodi:role="line"
           x="65.317429"
           y="157.34448"
           id="tspan1168"
           style="stroke-width:0.392337"><tspan
             dx="0"
             dy="0"
             style="font-style:normal;font-variant:normal;font-weight:400;font-size:3.99694px;font-family:Arial;fill:#000000;stroke-width:0.392337"
             id="tspan1166">1500</tspan></tspan></text>
      <path
         style="fill:none;stroke:#77ac30;stroke-width:0.216063px;stroke-linecap:butt;stroke-linejoin:round;stroke-miterlimit:4;stroke-dasharray:none;stroke-opacity:1"
         d="M 50.974112,155.88191 H 64.303598"
         id="path1172" />
      <path
         style="fill:#77ac30;fill-opacity:1;fill-rule:nonzero;stroke:none;stroke-width:0.392337"
         d="m 57.638855,154.652 c 0.664812,0 1.213281,0.54848 1.213281,1.22991 v 0 c 0,0.66481 -0.548469,1.21329 -1.213281,1.21329 -0.681433,0 -1.229902,-0.54848 -1.229902,-1.21329 0,-0.68143 0.548469,-1.22991 1.229902,-1.22991 z m 0,-0.21606 c -0.797777,0 -1.445966,0.64819 -1.445966,1.44597 0,0.78115 0.648189,1.42935 1.445966,1.42935 0.797771,0 1.429347,-0.6482 1.429347,-1.42935 v 0 c 0,-0.79778 -0.631576,-1.44597 -1.429347,-1.44597 z"
         id="path1174" />
      <path
         style="fill:none;stroke:#262626;stroke-width:0.216063px;stroke-linecap:butt;stroke-linejoin:miter;stroke-miterlimit:10;stroke-dasharray:none;stroke-opacity:1"
         d="m 49.62787,159.20597 v -28.71988 h 26.060638 v 28.71988 z"
         id="path1176" />
      <text
         xml:space="preserve"
         style="font-size:10.5833px;line-height:1.25;font-family:sans-serif;letter-spacing:0px;stroke-width:0.264583"
         x="2.0299797"
         y="179.40907"
         id="text1391"><tspan
           sodipodi:role="line"
           id="tspan1389"
           x="2.0299797"
           y="179.40907"
           style="font-size:5.64444px;stroke-width:0.264583">signal size (samples)</tspan></text>
      <text
         xml:space="preserve"
         style="font-size:10.5833px;line-height:1.25;font-family:sans-serif;letter-spacing:0px;stroke-width:0.264583"
         x="-140.08148"
         y="-29.935928"
         id="text1395"
         transform="rotate(-90)"><tspan
           sodipodi:role="line"
           id="tspan1393"
           x="-140.08148"
           y="-29.935928"
           style="font-size:5.64444px;stroke-width:0.264583">time (s)</tspan></text>
    </g>
  </g>
</svg>
